<svg xmlns="http://www.w3.org/2000/svg" xmlns:xlink="http://www.w3.org/1999/xlink" width="500" zoomAndPan="magnify" viewBox="0 0 375 374.999991" height="500" preserveAspectRatio="xMidYMid meet" version="1.2"><defs/><g id="af210af512"><path style=" stroke:none;fill-rule:nonzero;fill:#0fbcf9;fill-opacity:1;" d="M 375.652344 188.152344 C 375.652344 191.222656 375.578125 194.289062 375.425781 197.351562 C 375.277344 200.417969 375.050781 203.476562 374.75 206.53125 C 374.449219 209.585938 374.074219 212.628906 373.625 215.664062 C 373.171875 218.699219 372.648438 221.722656 372.050781 224.734375 C 371.453125 227.742188 370.78125 230.734375 370.035156 233.710938 C 369.289062 236.6875 368.46875 239.644531 367.578125 242.582031 C 366.6875 245.519531 365.726562 248.429688 364.691406 251.320312 C 363.660156 254.210938 362.554688 257.070312 361.378906 259.90625 C 360.207031 262.742188 358.964844 265.546875 357.652344 268.320312 C 356.339844 271.09375 354.960938 273.832031 353.511719 276.539062 C 352.066406 279.246094 350.554688 281.914062 348.976562 284.546875 C 347.398438 287.179688 345.757812 289.769531 344.054688 292.324219 C 342.347656 294.875 340.582031 297.382812 338.753906 299.847656 C 336.925781 302.3125 335.039062 304.730469 333.09375 307.101562 C 331.144531 309.472656 329.140625 311.796875 327.082031 314.070312 C 325.019531 316.34375 322.90625 318.566406 320.734375 320.734375 C 318.566406 322.90625 316.34375 325.019531 314.070312 327.082031 C 311.796875 329.140625 309.472656 331.144531 307.101562 333.09375 C 304.730469 335.039062 302.3125 336.925781 299.847656 338.753906 C 297.382812 340.582031 294.875 342.347656 292.324219 344.054688 C 289.769531 345.757812 287.179688 347.398438 284.546875 348.976562 C 281.914062 350.554688 279.246094 352.066406 276.539062 353.511719 C 273.832031 354.960938 271.09375 356.339844 268.320312 357.652344 C 265.546875 358.964844 262.742188 360.207031 259.90625 361.378906 C 257.070312 362.554688 254.210938 363.660156 251.320312 364.691406 C 248.429688 365.726562 245.519531 366.6875 242.582031 367.578125 C 239.644531 368.46875 236.6875 369.289062 233.710938 370.035156 C 230.734375 370.78125 227.742188 371.453125 224.734375 372.050781 C 221.722656 372.648438 218.699219 373.171875 215.664062 373.625 C 212.628906 374.074219 209.585938 374.449219 206.53125 374.75 C 203.476562 375.050781 200.417969 375.277344 197.351562 375.425781 C 194.289062 375.578125 191.222656 375.652344 188.152344 375.652344 C 185.085938 375.652344 182.019531 375.578125 178.953125 375.425781 C 175.886719 375.277344 172.828125 375.050781 169.773438 374.75 C 166.722656 374.449219 163.675781 374.074219 160.640625 373.625 C 157.605469 373.171875 154.582031 372.648438 151.574219 372.050781 C 148.5625 371.453125 145.570312 370.78125 142.59375 370.035156 C 139.617188 369.289062 136.660156 368.46875 133.726562 367.578125 C 130.789062 366.6875 127.875 365.726562 124.988281 364.691406 C 122.097656 363.660156 119.234375 362.554688 116.398438 361.378906 C 113.566406 360.207031 110.761719 358.964844 107.988281 357.652344 C 105.210938 356.339844 102.472656 354.960938 99.765625 353.511719 C 97.058594 352.066406 94.390625 350.554688 91.757812 348.976562 C 89.128906 347.398438 86.535156 345.757812 83.984375 344.054688 C 81.433594 342.347656 78.925781 340.582031 76.460938 338.753906 C 73.996094 336.925781 71.578125 335.039062 69.203125 333.09375 C 66.832031 331.144531 64.507812 329.140625 62.234375 327.082031 C 59.960938 325.019531 57.742188 322.90625 55.570312 320.734375 C 53.402344 318.566406 51.285156 316.34375 49.226562 314.070312 C 47.164062 311.796875 45.160156 309.472656 43.214844 307.101562 C 41.265625 304.730469 39.378906 302.3125 37.550781 299.847656 C 35.722656 297.382812 33.957031 294.875 32.253906 292.324219 C 30.546875 289.769531 28.90625 287.179688 27.328125 284.546875 C 25.75 281.914062 24.238281 279.246094 22.792969 276.539062 C 21.347656 273.832031 19.96875 271.09375 18.65625 268.320312 C 17.34375 265.546875 16.101562 262.742188 14.925781 259.90625 C 13.75 257.070312 12.648438 254.210938 11.613281 251.320312 C 10.578125 248.429688 9.617188 245.519531 8.726562 242.582031 C 7.835938 239.644531 7.019531 236.6875 6.273438 233.710938 C 5.527344 230.734375 4.855469 227.742188 4.257812 224.734375 C 3.65625 221.722656 3.132812 218.699219 2.683594 215.664062 C 2.234375 212.628906 1.855469 209.585938 1.554688 206.53125 C 1.253906 203.476562 1.03125 200.417969 0.878906 197.351562 C 0.730469 194.289062 0.652344 191.222656 0.652344 188.152344 C 0.652344 185.085938 0.730469 182.019531 0.878906 178.953125 C 1.03125 175.886719 1.253906 172.828125 1.554688 169.773438 C 1.855469 166.722656 2.234375 163.675781 2.683594 160.640625 C 3.132812 157.605469 3.65625 154.582031 4.257812 151.574219 C 4.855469 148.5625 5.527344 145.570312 6.273438 142.59375 C 7.019531 139.617188 7.835938 136.660156 8.726562 133.726562 C 9.617188 130.789062 10.578125 127.875 11.613281 124.988281 C 12.648438 122.097656 13.75 119.234375 14.925781 116.398438 C 16.101562 113.566406 17.34375 110.761719 18.65625 107.988281 C 19.96875 105.210938 21.347656 102.472656 22.792969 99.765625 C 24.238281 97.058594 25.75 94.390625 27.328125 91.757812 C 28.90625 89.128906 30.546875 86.535156 32.253906 83.984375 C 33.957031 81.433594 35.722656 78.925781 37.550781 76.460938 C 39.378906 73.996094 41.265625 71.578125 43.214844 69.203125 C 45.160156 66.832031 47.164062 64.507812 49.226562 62.234375 C 51.285156 59.960938 53.402344 57.742188 55.570312 55.570312 C 57.742188 53.402344 59.960938 51.285156 62.234375 49.226562 C 64.507812 47.164062 66.832031 45.160156 69.203125 43.214844 C 71.578125 41.265625 73.996094 39.378906 76.460938 37.550781 C 78.925781 35.722656 81.433594 33.957031 83.984375 32.253906 C 86.535156 30.546875 89.128906 28.90625 91.757812 27.328125 C 94.390625 25.75 97.058594 24.238281 99.765625 22.792969 C 102.472656 21.347656 105.210938 19.96875 107.988281 18.65625 C 110.761719 17.34375 113.566406 16.101562 116.398438 14.925781 C 119.234375 13.75 122.097656 12.648438 124.988281 11.613281 C 127.875 10.578125 130.789062 9.617188 133.726562 8.726562 C 136.660156 7.835938 139.617188 7.019531 142.59375 6.273438 C 145.570312 5.527344 148.5625 4.855469 151.574219 4.257812 C 154.582031 3.65625 157.605469 3.132812 160.640625 2.683594 C 163.675781 2.234375 166.722656 1.855469 169.773438 1.554688 C 172.828125 1.253906 175.886719 1.03125 178.953125 0.878906 C 182.019531 0.730469 185.085938 0.652344 188.152344 0.652344 C 191.222656 0.652344 194.289062 0.730469 197.351562 0.878906 C 200.417969 1.03125 203.476562 1.253906 206.53125 1.554688 C 209.585938 1.855469 212.628906 2.234375 215.664062 2.683594 C 218.699219 3.132812 221.722656 3.65625 224.734375 4.257812 C 227.742188 4.855469 230.734375 5.527344 233.710938 6.273438 C 236.6875 7.019531 239.644531 7.835938 242.582031 8.726562 C 245.519531 9.617188 248.429688 10.578125 251.320312 11.613281 C 254.210938 12.648438 257.070312 13.75 259.90625 14.925781 C 262.742188 16.101562 265.546875 17.34375 268.320312 18.65625 C 271.09375 19.96875 273.832031 21.347656 276.539062 22.792969 C 279.246094 24.238281 281.914062 25.75 284.546875 27.328125 C 287.179688 28.90625 289.769531 30.546875 292.324219 32.253906 C 294.875 33.957031 297.382812 35.722656 299.847656 37.550781 C 302.3125 39.378906 304.730469 41.265625 307.101562 43.214844 C 309.472656 45.160156 311.796875 47.164062 314.070312 49.226562 C 316.34375 51.285156 318.566406 53.402344 320.734375 55.570312 C 322.90625 57.742188 325.019531 59.960938 327.082031 62.234375 C 329.140625 64.507812 331.144531 66.832031 333.09375 69.203125 C 335.039062 71.578125 336.925781 73.996094 338.753906 76.460938 C 340.582031 78.925781 342.347656 81.433594 344.054688 83.984375 C 345.757812 86.535156 347.398438 89.128906 348.976562 91.757812 C 350.554688 94.390625 352.066406 97.058594 353.511719 99.765625 C 354.960938 102.472656 356.339844 105.210938 357.652344 107.988281 C 358.964844 110.761719 360.207031 113.566406 361.378906 116.398438 C 362.554688 119.234375 363.660156 122.097656 364.691406 124.988281 C 365.726562 127.875 366.6875 130.789062 367.578125 133.726562 C 368.46875 136.660156 369.289062 139.617188 370.035156 142.59375 C 370.78125 145.570312 371.453125 148.5625 372.050781 151.574219 C 372.648438 154.582031 373.171875 157.605469 373.625 160.640625 C 374.074219 163.675781 374.449219 166.722656 374.75 169.773438 C 375.050781 172.828125 375.277344 175.886719 375.425781 178.953125 C 375.578125 182.019531 375.652344 185.085938 375.652344 188.152344 Z M 375.652344 188.152344 "/><path style=" stroke:none;fill-rule:evenodd;fill:#ffffff;fill-opacity:1;" d="M 234.042969 284.960938 C 234.472656 285.535156 235.007812 285.984375 235.648438 286.304688 C 236.289062 286.625 236.96875 286.789062 237.6875 286.789062 L 282.570312 286.789062 C 282.996094 286.789062 283.410156 286.730469 283.820312 286.613281 C 284.230469 286.496094 284.613281 286.328125 284.976562 286.105469 C 285.335938 285.878906 285.660156 285.609375 285.949219 285.296875 C 286.234375 284.980469 286.472656 284.632812 286.660156 284.253906 C 286.851562 283.871094 286.984375 283.472656 287.0625 283.054688 C 287.140625 282.636719 287.160156 282.214844 287.121094 281.792969 C 287.082031 281.371094 286.984375 280.960938 286.832031 280.5625 C 286.675781 280.167969 286.472656 279.800781 286.214844 279.460938 L 208.445312 176.5625 L 280.0625 97.09375 C 280.359375 96.765625 280.601562 96.402344 280.792969 96.003906 C 280.988281 95.605469 281.117188 95.1875 281.1875 94.75 C 281.257812 94.3125 281.265625 93.871094 281.207031 93.433594 C 281.148438 92.992188 281.03125 92.570312 280.851562 92.167969 C 280.671875 91.761719 280.4375 91.390625 280.148438 91.054688 C 279.863281 90.71875 279.53125 90.429688 279.160156 90.1875 C 278.789062 89.945312 278.390625 89.761719 277.964844 89.636719 C 277.539062 89.511719 277.105469 89.449219 276.664062 89.453125 L 229.964844 89.453125 C 229.300781 89.453125 228.671875 89.589844 228.066406 89.867188 C 227.464844 90.140625 226.949219 90.53125 226.515625 91.03125 L 155.265625 172.996094 L 155.265625 94.078125 C 155.265625 93.777344 155.238281 93.480469 155.179688 93.183594 C 155.121094 92.890625 155.03125 92.605469 154.917969 92.328125 C 154.800781 92.050781 154.660156 91.785156 154.496094 91.535156 C 154.328125 91.285156 154.136719 91.054688 153.925781 90.84375 C 153.714844 90.628906 153.484375 90.441406 153.234375 90.273438 C 152.984375 90.105469 152.71875 89.964844 152.441406 89.851562 C 152.164062 89.738281 151.878906 89.648438 151.585938 89.589844 C 151.289062 89.53125 150.992188 89.503906 150.691406 89.503906 L 113.804688 89.503906 C 113.507812 89.503906 113.207031 89.53125 112.914062 89.589844 C 112.621094 89.648438 112.332031 89.738281 112.054688 89.851562 C 111.777344 89.964844 111.515625 90.105469 111.265625 90.273438 C 111.015625 90.441406 110.785156 90.628906 110.574219 90.84375 C 110.359375 91.054688 110.171875 91.285156 110.003906 91.535156 C 109.835938 91.785156 109.695312 92.050781 109.582031 92.328125 C 109.464844 92.605469 109.378906 92.890625 109.320312 93.183594 C 109.261719 93.480469 109.234375 93.777344 109.234375 94.078125 L 109.234375 282.230469 C 109.234375 282.53125 109.261719 282.828125 109.320312 283.121094 C 109.378906 283.417969 109.464844 283.703125 109.582031 283.980469 C 109.695312 284.257812 109.835938 284.519531 110.003906 284.769531 C 110.171875 285.019531 110.359375 285.25 110.574219 285.464844 C 110.785156 285.675781 111.015625 285.867188 111.265625 286.03125 C 111.515625 286.199219 111.777344 286.339844 112.054688 286.453125 C 112.332031 286.570312 112.621094 286.65625 112.914062 286.714844 C 113.207031 286.773438 113.507812 286.804688 113.804688 286.804688 L 150.679688 286.804688 C 150.980469 286.804688 151.277344 286.773438 151.570312 286.714844 C 151.867188 286.65625 152.152344 286.570312 152.429688 286.453125 C 152.707031 286.339844 152.96875 286.199219 153.21875 286.03125 C 153.46875 285.867188 153.699219 285.675781 153.914062 285.464844 C 154.125 285.25 154.316406 285.019531 154.480469 284.769531 C 154.648438 284.519531 154.789062 284.257812 154.90625 283.980469 C 155.019531 283.703125 155.105469 283.417969 155.164062 283.121094 C 155.222656 282.828125 155.253906 282.53125 155.253906 282.230469 L 155.253906 235.820312 L 178.039062 210.640625 Z M 234.042969 284.960938 "/><g style="fill:#000000;fill-opacity:1;"><g transform="translate(186.804319, 294.546581)"><path style="stroke:none" d="M 0.6875 0.015625 C 0.601562 0.015625 0.523438 0 0.453125 -0.03125 C 0.390625 -0.0625 0.335938 -0.109375 0.296875 -0.171875 C 0.265625 -0.234375 0.25 -0.304688 0.25 -0.390625 C 0.25 -0.460938 0.265625 -0.53125 0.296875 -0.59375 C 0.335938 -0.65625 0.390625 -0.703125 0.453125 -0.734375 C 0.523438 -0.773438 0.601562 -0.796875 0.6875 -0.796875 C 0.78125 -0.796875 0.859375 -0.773438 0.921875 -0.734375 C 0.984375 -0.703125 1.03125 -0.65625 1.0625 -0.59375 C 1.101562 -0.53125 1.125 -0.460938 1.125 -0.390625 C 1.125 -0.265625 1.082031 -0.164062 1 -0.09375 C 0.925781 -0.0195312 0.820312 0.015625 0.6875 0.015625 Z M 0.6875 0.015625 "/></g></g></g></svg>